<svg id="Laag_1" data-name="Laag 1" xmlns="http://www.w3.org/2000/svg" viewBox="0 0 200 200" width="200" height="200"><defs><style>.cls-1{fill:#494949;}.cls-2{fill:#922200;}.cls-3{fill:#00c4a2;}.cls-4{fill:#00a08c;}.cls-5{fill:#333;}.cls-6{fill:#ffd38f;}.cls-7{fill:#005652;}.cls-8{fill:#9a43ff;}.cls-9{fill:#ffae39;}.cls-10{fill:#fff;}.cls-11{fill:#f96400;}.cls-12{fill:#922300;}.cls-13{fill:#ff8c00;}.cls-14{fill:#cf4000;}</style></defs><circle class="cls-1" cx="100.31" cy="112.45" r="73.49"/><path class="cls-2" d="M194.89,65.71c2.67,0,3.76,6.17,3.76,13.77s-1.09,13.77-3.76,13.77Z"/><polygon class="cls-3" points="194.89 93.25 194.89 95.58 181.49 94.11 181.49 64.89 194.89 63.41 194.89 65.71 194.89 93.25"/><polygon class="cls-4" points="181.49 64.89 181.49 94.11 163.27 92.1 159.92 91.73 159.92 90 159.92 69.42 159.92 68.99 159.92 67.26 181.49 64.89"/><path class="cls-5" d="M156.05,160.38a73.62,73.62,0,0,1-23.52,18.15,63.56,63.56,0,0,1-4.48-12.16c5.63.09,6.58,1.83,9.41,1.83a2.81,2.81,0,0,0,3.11-3.16c0-4.79-8.06-7.45-13.17-7.45h-.58c0-.3,0-.59,0-.89a27.88,27.88,0,0,1,2.83-12.8h0a21.12,21.12,0,0,1,1.55-2.61c.61.56,1.24,1.12,1.91,1.63a9.53,9.53,0,0,0,2.6,1.45c1.85.63,3.56.4,4.19-1.44,1.07-3.12-.84-5.79-2.53-7.6a27.62,27.62,0,0,1,15.1-4.09c1,0,2.06,0,3.1.12-.2,2.09-.34,4-.34,6.23,0,4.06.77,10.45,4.84,10.45a3.2,3.2,0,0,0,2.46-1.34c2-2.4,2.79-7.46,2.79-10.49,0-1-.05-2-.14-2.92a29.46,29.46,0,0,1,5,2.2A73.71,73.71,0,0,1,156.05,160.38Z"/><path class="cls-6" d="M147.69,89.07q6.1.56,12.23.93v1.73l3.35.37c0,5.83-.05,14.39-5.42,16.82a8,8,0,0,1-3.35.66H137.13v0c-1.34-2.14-2.23-5.11-2.23-9.33,0-3,1.23-7.92,3.17-12.19Q142.88,88.64,147.69,89.07Z"/><path class="cls-7" d="M159.92,69.42V90q-6.12-.37-12.23-.93c.71-2.2,1.63-3.84,1.63-5.83A3.2,3.2,0,0,0,146,79.76c-3,0-5.84,3.79-7.89,8.32l-2.59-.32V71.23c8-1,16.06-1.71,24.15-2.22Z"/><path class="cls-8" d="M159.92,69v.43l-.3-.41Z"/><path class="cls-9" d="M137.12,109.6v0H154.5a8,8,0,0,0,3.35-.66l2.07,16.75H135.18Z"/><path class="cls-6" d="M146,79.76a3.2,3.2,0,0,1,3.37,3.48c0,2-.92,3.63-1.63,5.83q-4.81-.43-9.63-1C140.11,83.55,143,79.76,146,79.76Z"/><path class="cls-9" d="M140.57,165a2.81,2.81,0,0,1-3.11,3.16c-2.83,0-3.78-1.74-9.41-1.83a63.56,63.56,0,0,0,4.48,12.16,73.09,73.09,0,0,1-21.75,6.68l-.49-11.63c10.19-11.92,12.31-28.87,12.33-33,0-.56,0-1.1,0-1.63h0c2.42,1.56,4.76,3.17,7,4.92a27.88,27.88,0,0,0-2.83,12.8c0,.3,0,.59,0,.89h.58C132.51,157.59,140.57,160.25,140.57,165Z"/><polygon class="cls-4" points="135.47 73.59 135.47 85.41 129.03 84.83 129.03 74.16 135.47 73.59"/><path class="cls-9" d="M133.1,142.92l2.08-17.25h24.74l2.6,21a3.2,3.2,0,0,1-2.46,1.34c-4.07,0-4.84-6.39-4.84-10.45,0-2.21.14-4.14.34-6.23-1-.08-2.07-.12-3.1-.12a27.62,27.62,0,0,0-15.1,4.09c1.69,1.81,3.6,4.48,2.53,7.6-.63,1.84-2.34,2.07-4.19,1.44a9.53,9.53,0,0,1-2.6-1.45Z"/><path class="cls-9" d="M127.48,63.05H111.16c.51-10.84-6.08-17.94-13.53-18.23h9.12a24.77,24.77,0,0,1,3.77.29C125.14,47.44,127.48,63.05,127.48,63.05Z"/><path class="cls-2" d="M124.92,79.45a53.42,53.42,0,0,1-.69,8.22h-.07a6.82,6.82,0,0,1-7.1-7.15,10,10,0,0,1,6.83-9.23A29,29,0,0,1,124.92,79.45Z"/><path class="cls-10" d="M123.85,87.76c-7.65,0-11.65-5.07-11.65-9.47,0-4.67,4.38-8.68,9.9-8.68.41,0,.82,0,1.25.06q.3.78.54,1.62a10,10,0,0,0-6.83,9.23,6.82,6.82,0,0,0,7.1,7.15h.07s0,.06,0,.09Z"/><path class="cls-9" d="M97.63,44.82c7.45.29,14,7.39,13.53,18.23H78.82c0-.6-.07-1.22-.07-1.84,0-8.73,3.62-14.65,11.6-16.39Z"/><path class="cls-11" d="M110.29,173.58l.49,11.63a74.81,74.81,0,0,1-24-.51l-.3-11.29-.85-31.94h.11c4.29-1,9.44-4.45,12.4-11.14h0c1.67,5.43,5.17,9.91,10.74,10.32Zm-7-8.25a4.45,4.45,0,1,0-4.45,4.45A4.45,4.45,0,0,0,103.26,165.33Zm-.71-17.6a4.46,4.46,0,1,0-4.46,4.45A4.46,4.46,0,0,0,102.55,147.73Z"/><path class="cls-9" d="M110.52,45.11h0a24.77,24.77,0,0,0-3.77-.29H101c.26-9.4-3.65-15.75-7-15.75v0C104.48,29.23,108.62,37.21,110.52,45.11Z"/><path class="cls-9" d="M108.49,130.32l.43,10.32c-5.57-.41-9.07-4.89-10.74-10.32Z"/><path class="cls-10" d="M108.41,122.17c7.51,0,13.68,5.51,14.17,16.82,0,.53,0,1.07,0,1.63,0,4.09-2.14,21-12.33,33l-1.37-32.94-.43-10.32-.34-8.14Z"/><path class="cls-6" d="M108.05,119.82l.1,2.36.34,8.14H98.18v0l0,0H85.34l-.24-9,6.75.64,13.7,1.3C101.2,103.77,96.62,84.32,91,65.18c18.2,8.72,31,2.46,31.28,2.33a16.52,16.52,0,0,1,1,2.16c-.43,0-.84-.06-1.25-.06-5.52,0-9.9,4-9.9,8.68,0,4.4,4,9.47,11.65,9.47h.37c0,.33-.1.65-.16,1,2.43.26,4.79,1.47,4.79,4.3,0,3-1.73,4.19-4.36,4.34.06.64.12,1.29.17,1.95l-7.43-.85a10,10,0,0,0,7.66,5.66c0,.34,0,.69,0,1,0,8.42-1.86,16.32-9.94,16.32a15.2,15.2,0,0,1-4.61-.71,15.64,15.64,0,0,1-2.3-1Z"/><circle class="cls-9" cx="98.81" cy="165.33" r="4.45"/><path class="cls-9" d="M98.09,143.27a4.46,4.46,0,1,1-4.45,4.46A4.46,4.46,0,0,1,98.09,143.27Z"/><path class="cls-9" d="M86.75,40.21c1.52-7.45,5.14-11.12,7.19-11.14h0c3.37,0,7.28,6.35,7,15.75H87.87a29.86,29.86,0,0,0-1.14-4.54A.25.25,0,0,0,86.75,40.21Z"/><path class="cls-8" d="M98.17,130.28v0h0Z"/><path class="cls-9" d="M85.39,130.32H98.15c-3,6.69-8.11,10.19-12.4,11.14h-.11l-.3-11.15Z"/><path class="cls-9" d="M90.35,44.82c-8,1.74-11.6,7.66-11.6,16.39,0,.62,0,1.24.07,1.84H60.4A18.5,18.5,0,0,1,76.76,45,18.16,18.16,0,0,1,79,44.82H90.35Z"/><path class="cls-9" d="M65.52,177.19a73.87,73.87,0,0,1-24.33-21.1c2.35-12.36,11.88-21.05,24.37-24.24a22.41,22.41,0,0,0-1.79,9c0,9.68,5.36,21.83,21,31.5.58.36,1.17.7,1.76,1l.3,11.29A73.06,73.06,0,0,1,65.52,177.19Z"/><path class="cls-9" d="M92.72,29.07c.42,0,.83,0,1.23,0v0h0c-2,0-5.67,3.69-7.19,11.14a.25.25,0,0,1,0,.07c-1-2.92-2.58-5.44-5-6.7A16.08,16.08,0,0,1,92.72,29.07Z"/><path class="cls-10" d="M85.64,141.47l.85,31.94c-.59-.33-1.18-.67-1.76-1-15.6-9.67-21-21.82-21-31.5a22.41,22.41,0,0,1,1.79-9,18.25,18.25,0,0,1,14.4-11l.73.07,4.41.42.24,9Z"/><path class="cls-6" d="M80.3,73.85l4.76,19.83c-5.6,0-13.68-5.18-13.68-12.15,0-4.51,3.23-7.87,7.24-7.87a7.44,7.44,0,0,1,1.67.19Z"/><path class="cls-8" d="M80.66,120.73l0,.15-.73-.07Z"/><path class="cls-12" d="M61.85,68.81a30.29,30.29,0,0,1,1.3,8.61c0,8.23-4.61,13.06-11.62,14.63C52.11,81.12,56.41,73.67,61.85,68.81Z"/><path class="cls-5" d="M42.55,67a73.37,73.37,0,0,1,11.5-11.67,30.68,30.68,0,0,1,4,5.07,20,20,0,0,0-9.74,7.17A24.58,24.58,0,0,1,60,64.71h.38a33.16,33.16,0,0,1,1.51,4.1c-5.44,4.86-9.74,12.31-10.32,23.24a24.05,24.05,0,0,1-4.38.55c-.31-4.44-2.49-11.19-5.9-14.69,0,.44,0,.87,0,1.29A24.92,24.92,0,0,1,38,91.68a23.54,23.54,0,0,1-7.18-3.18A73.3,73.3,0,0,1,42.55,67Z"/><path class="cls-5" d="M54.17,123.86a27.34,27.34,0,0,1-9.5,17.32,47.88,47.88,0,0,1-9,6.17,73.78,73.78,0,0,1-6.79-52A31,31,0,0,1,43.07,99c7,3.93,11.37,10.93,11.37,20.68A31.54,31.54,0,0,1,54.17,123.86Z"/><path class="cls-13" d="M101.4,45.53h0a.7.7,0,0,1-.68-.73c.2-6.65-1.83-11.18-3.79-13.19A3.73,3.73,0,0,0,94.4,30.3c-1.66,0-6.1,3.95-7.18,11.53a.71.71,0,1,1-1.4-.2C87,33.29,92,28.9,94.39,28.88a5.07,5.07,0,0,1,3.53,1.74c2.17,2.22,4.41,7.12,4.19,14.22A.7.7,0,0,1,101.4,45.53Z"/><path class="cls-13" d="M111.59,63.41h0a.71.71,0,0,1-.68-.74c.25-5.22-1.22-9.84-4.13-13A12.44,12.44,0,0,0,98,45.53a.71.71,0,1,1,.06-1.42,13.88,13.88,0,0,1,9.69,4.58c3.18,3.46,4.78,8.45,4.51,14A.71.71,0,0,1,111.59,63.41Z"/><path class="cls-13" d="M79.25,63.76a.71.71,0,0,1-.71-.65c0-.63-.07-1.27-.07-1.9,0-9.44,4.21-15.34,12.16-17.08a.71.71,0,0,1,.84.54.69.69,0,0,1-.54.84c-7.33,1.6-11,6.89-11,15.7,0,.6,0,1.2.07,1.79a.71.71,0,0,1-.65.76Z"/><path class="cls-13" d="M66,178.14a.72.72,0,0,1-.71-.68c-.51-10.22-2.73-17.65-8.17-27.41a.71.71,0,0,1,1.24-.69c5.56,10,7.82,17.56,8.35,28a.71.71,0,0,1-.67.75Z"/><path class="cls-1" d="M156.3,160.79a.71.71,0,0,1-.61-.35c-4.48-7.48-10-12.38-13.21-13.36a.71.71,0,1,1,.42-1.36c3.32,1,9.12,5.84,14,14a.7.7,0,0,1-.61,1.07Z"/><path class="cls-7" d="M148.06,97.63a.72.72,0,0,1-.7-.59,22.94,22.94,0,0,1-.39-4A18.47,18.47,0,0,1,148.45,86a10.76,10.76,0,0,0,.94-3.8,2.5,2.5,0,0,0-2.65-2.78.71.71,0,1,1,0-1.41,3.91,3.91,0,0,1,4.07,4.19,12.1,12.1,0,0,1-1,4.3A17.19,17.19,0,0,0,148.39,93a21,21,0,0,0,.37,3.75.72.72,0,0,1-.57.83Z"/><path class="cls-1" d="M45.1,141.89a.71.71,0,0,1-.62-.37c-1.53-2.85-4.19-6.72-8.21-9a.71.71,0,0,1-.28-1,.72.72,0,0,1,1-.27,23.25,23.25,0,0,1,8.77,9.54.72.72,0,0,1-.3,1A.76.76,0,0,1,45.1,141.89Z"/><path class="cls-1" d="M54.61,124.57a.73.73,0,0,1-.51-.21c-3.47-3.52-8.23-5.25-14.54-5.31a.71.71,0,0,1-.71-.72.72.72,0,0,1,.71-.7h0c6.71.06,11.79,1.94,15.54,5.73a.71.71,0,0,1-.5,1.21Z"/><path class="cls-1" d="M34.36,112.13a.71.71,0,0,1-.51-1.2c3.44-3.56,6.63-7.13,7.84-11.68.09-.31.16-.63.22-1a.71.71,0,0,1,.84-.55.7.7,0,0,1,.55.83c-.07.35-.15.69-.24,1-1.3,4.89-4.61,8.61-8.19,12.3A.7.7,0,0,1,34.36,112.13Z"/><path class="cls-1" d="M51.4,77.91a.71.71,0,0,1-.58-.31,63.23,63.23,0,0,0-8.57-10.29.71.71,0,0,1,0-1,.72.72,0,0,1,1,0A64.19,64.19,0,0,1,52,76.8a.69.69,0,0,1-.18,1A.66.66,0,0,1,51.4,77.91Z"/><path class="cls-13" d="M94.14,63.41a.71.71,0,0,1-.71-.71v-18a.71.71,0,1,1,1.42,0v18A.71.71,0,0,1,94.14,63.41Z"/><path class="cls-6" d="M82.31,44.82H79a18.16,18.16,0,0,0-2.23.14h0a6.64,6.64,0,0,1-4.64-6.52,7,7,0,0,1,.58-2.79,5.75,5.75,0,0,1,5.18-2.93,8.13,8.13,0,0,1,3.8.87c2.47,1.26,4,3.78,5,6.7a29.86,29.86,0,0,1,1.14,4.54Z"/><path class="cls-13" d="M110.42,45.41H75.93a.71.71,0,0,1,0-1.42h34.49a.71.71,0,0,1,0,1.42Z"/><path class="cls-14" d="M91.85,121.94l-6.75-.64-4.41-.42,0-.15-.7.08-10-1-9.9-.94a38.18,38.18,0,0,1-8.54-24.33c0-.86,0-1.71.06-2.53,7-1.57,11.62-6.4,11.62-14.63a30.29,30.29,0,0,0-1.3-8.61,31.32,31.32,0,0,1,9.41-5.76h47.09a13.83,13.83,0,0,1,4,4.46c-.25.13-13.08,6.39-31.28-2.33,5.58,19.14,10.16,38.59,14.51,58.06ZM85.06,93.68,80.3,73.85h0a7.44,7.44,0,0,0-1.67-.19c-4,0-7.24,3.36-7.24,7.87C71.38,88.5,79.46,93.67,85.06,93.68Z"/><path class="cls-13" d="M92.28,122.65a.7.7,0,0,1-.68-.54L79.18,70.43a.71.71,0,0,1,.52-.86.72.72,0,0,1,.86.53L93,121.77a.71.71,0,0,1-.52.86Z"/><path class="cls-13" d="M81.13,121.59a.71.71,0,0,1-.69-.55l-6.27-26.4a.71.71,0,1,1,1.38-.32l6.27,26.39a.71.71,0,0,1-.53.86Z"/><path class="cls-13" d="M70.34,120.56a.71.71,0,0,1-.69-.53l-3.79-14.92a.72.72,0,0,1,.52-.86.7.7,0,0,1,.86.51L71,119.68a.72.72,0,0,1-.52.86Z"/></svg>
